<svg width="190" height="205" viewBox="0 0 190 205" fill="none" xmlns="http://www.w3.org/2000/svg">
<path d="M88.7566 1.42352L6.24453 46.808C2.79348 48.7083 0 53.4375 0 57.3698V147.621C0 151.558 2.79348 156.289 6.24453 158.187L88.7566 203.576C92.2076 205.472 97.7992 205.472 101.243 203.576L183.755 158.187C187.206 156.283 190 151.558 190 147.621V57.3698C190 53.4375 187.206 48.7083 183.755 46.808L101.243 1.42352C99.5179 0.472235 97.2595 0 95.0057 0C92.7518 0 90.4867 0.474506 88.7611 1.42352" fill="#2DC5FA"/>
<path d="M64.4496 79.0201H64.4927H64.436H64.4496ZM64.4224 79.0201H64.436C64.4234 79.0233 64.4101 79.0233 64.3975 79.0201C64.4056 79.0228 64.4143 79.0228 64.4224 79.0201ZM43.6504 97.0513H50.4029V63.8132H43.6504V97.0513ZM64.7353 79.0632C64.7693 79.0632 64.7988 79.0632 64.8215 79.0632C64.7966 79.0632 64.7693 79.0632 64.7353 79.0632ZM64.5607 79.0428H64.6061H64.5607ZM64.3113 79.0201V69.0191C65.7204 68.8359 67.1396 68.7412 68.5605 68.7354C73.4083 68.7354 75.059 70.2088 75.059 73.8823C75.059 78.1074 72.5943 79.1745 68.4177 79.1745C67.1076 79.1932 65.7974 79.1424 64.4927 79.0224H64.4428H64.4156C64.403 79.0254 64.3897 79.0254 64.3771 79.0224C64.3704 79.0243 64.3633 79.0243 64.3567 79.0224C64.3588 79.0234 64.3611 79.0239 64.3635 79.0239C64.3658 79.0239 64.3682 79.0234 64.3703 79.0224C64.3703 79.0224 64.3544 79.0224 64.3499 79.0224H64.3136L64.3113 79.0201ZM57.5929 64.3785V97.049H64.3159V84.3645C65.4859 84.4349 67.0232 84.5098 68.3768 84.5098L75.1792 97.049H82.9361L75.356 83.7356C79.2583 82.555 81.723 79.7875 81.723 73.9095C81.723 64.9257 75.7233 63.4658 68.3836 63.4658C64.7646 63.4627 61.1517 63.7665 57.5838 64.374L57.5929 64.3785ZM93.9241 80.4277C93.9241 73.6484 94.0647 69.0146 100.364 69.0146C106.663 69.0146 106.796 73.6529 106.796 80.4322C106.796 87.2115 106.649 91.8272 100.366 91.8272C94.0828 91.8272 93.9263 87.2093 93.9263 80.4322L93.9241 80.4277ZM87.0832 80.4322C87.0832 92.4652 90.0309 97.3896 100.366 97.3896C110.701 97.3896 113.639 92.472 113.639 80.4322C113.639 68.3925 110.692 63.4727 100.366 63.4727C90.04 63.4727 87.0832 68.3925 87.0832 80.4322ZM119.947 68.5242V97.049H126.002V72.5813L136.538 93.0146C138.246 96.3202 139.801 97.3941 142.27 97.3941C144.858 97.3941 146.34 95.8616 146.34 92.3312V63.8132H140.286V88.1833L129.745 67.8363C128.076 64.6305 126.333 63.4727 124.027 63.4727C121.48 63.4727 119.945 64.9824 119.945 68.5242" fill="white"/>
<path d="M63.0348 109.447V123.703H45.2377V109.447H42.5757V141.019H45.2377V126.005H63.0348V141.024H65.6877V109.447H63.0348ZM143.62 109.447L129.038 124.08V109.447H126.387V141.019H129.038V125.515L143.894 141.019H147.424L131.715 124.702L147.005 109.447H143.62ZM84.8634 112.685L91.1147 129.449H78.569L84.8634 112.685ZM82.9882 110.925L71.4946 141.019H74.2155L77.721 131.652H91.9446L95.4455 141.019H98.2798L86.9426 110.925C86.4892 109.738 85.8724 109.123 84.9473 109.123C84.0222 109.123 83.4463 109.72 82.9882 110.925ZM100.983 125.229C100.983 136.431 103.425 141.348 113.54 141.348C115.852 141.344 118.158 141.116 120.426 140.667L120.174 138.54C118.436 138.823 116.681 138.985 114.921 139.023C104.973 139.023 103.667 134.501 103.667 125.236C103.667 115.97 104.76 111.439 114.921 111.439C116.677 111.48 118.428 111.648 120.161 111.943L120.417 109.745C118.146 109.323 115.84 109.114 113.531 109.123C103.427 109.123 100.974 114.011 100.974 125.242" fill="white"/>
</svg>
